<?xml version="1.0" encoding="UTF-8" standalone="no"?>
<svg
   viewBox="0 0 24 24"
   version="1.1"
   id="svg50"
   sodipodi:docname="bulb.svg"
   inkscape:export-filename="bulb.png"
   inkscape:export-xdpi="157.36"
   inkscape:export-ydpi="157.36"
   inkscape:version="1.2.2 (b0a8486541, 2022-12-01)"
   xmlns:inkscape="http://www.inkscape.org/namespaces/inkscape"
   xmlns:sodipodi="http://sodipodi.sourceforge.net/DTD/sodipodi-0.dtd"
   xmlns:xlink="http://www.w3.org/1999/xlink"
   xmlns="http://www.w3.org/2000/svg"
   xmlns:svg="http://www.w3.org/2000/svg">
  <defs
     id="defs54">
    <linearGradient
       inkscape:collect="always"
       id="linearGradient2695">
      <stop
         style="stop-color:#ffc400;stop-opacity:1;"
         offset="0"
         id="stop2691" />
      <stop
         style="stop-color:#00bbff;stop-opacity:1;"
         offset="1"
         id="stop2693" />
    </linearGradient>
    <linearGradient
       inkscape:collect="always"
       xlink:href="#linearGradient2695"
       id="linearGradient2697"
       x1="0"
       y1="12.010649"
       x2="24"
       y2="12"
       gradientUnits="userSpaceOnUse" />
  </defs>
  <sodipodi:namedview
     id="namedview52"
     pagecolor="#505050"
     bordercolor="#ffffff"
     borderopacity="1"
     inkscape:showpageshadow="0"
     inkscape:pageopacity="0"
     inkscape:pagecheckerboard="1"
     inkscape:deskcolor="#505050"
     showgrid="true"
     inkscape:zoom="37.416667"
     inkscape:cx="11.532294"
     inkscape:cy="12.040089"
     inkscape:window-width="2556"
     inkscape:window-height="1386"
     inkscape:window-x="0"
     inkscape:window-y="0"
     inkscape:window-maximized="1"
     inkscape:current-layer="svg50">
    <inkscape:grid
       type="xygrid"
       id="grid1206" />
  </sodipodi:namedview>
  <title
     id="title45">system/devices/bulb</title>
  <rect
     style="fill:url(#linearGradient2697);fill-opacity:1;stroke:none;stroke-width:0.3;stroke-linejoin:miter;stroke-dasharray:none;stroke-opacity:1;paint-order:fill markers stroke"
     id="rect947"
     width="24"
     height="24"
     x="0"
     y="0"
     rx="0.66131335" />
  <g
     id="Android/system"
     stroke="none"
     stroke-width="1"
     fill="none"
     fill-rule="evenodd">
    <g
       id="system/devices/bulb"
       fill="#000000"
       fill-rule="nonzero">
      <path
         d="M12 2c4.41 0 8 3.36 8 7.48 0 1.37-.17 2.84-1.42 4.26l-.22.26c-.5.56-1.06 1.19-1.5 1.97-.05.09-.09.17-.14.26a5.77 5.77 0 0 0-.61 2.61v1.44c0 .17-.04.33-.12.48-.25.46-1.1 1.24-3.99 1.24s-3.74-.78-3.99-1.24c-.08-.15-.12-.31-.12-.48v-1.44c0-1.03-.25-1.88-.61-2.61-.05-.09-.09-.17-.14-.26-.44-.78-1-1.41-1.5-1.97l-.23-.26C4.17 12.32 4 10.85 4 9.48 4 5.36 7.59 2 12 2Zm2.22 15.5c-.6.11-1.33.18-2.22.18-.89 0-1.62-.07-2.22-.18.07.42.11.86.11 1.34v.91c.3.11.93.25 2.11.25 1.18 0 1.81-.14 2.11-.25v-.91c0-.48.04-.92.11-1.34ZM12 4C8.69 4 6 6.46 6 9.48c0 1.38.25 2.18.92 2.94l.22.25c.54.62 1.23 1.39 1.78 2.4.08.08.56.45 2.08.57v-3.99C9.27 11.24 8 9.76 8 8c0-.55.45-1 1-1s1 .45 1 1c0 .98.9 1.78 2 1.78s2-.8 2-1.78c0-.55.45-1 1-1s1 .45 1 1c0 1.76-1.27 3.24-3 3.65v3.99c1.52-.12 2-.49 2.08-.57.55-1.01 1.24-1.78 1.78-2.4l.22-.25c.67-.76.92-1.56.92-2.94C18 6.46 15.31 4 12 4Z"
         id="🎨-Color" />
    </g>
  </g>
</svg>
